<?xml version="1.0" standalone="no"?>
<!DOCTYPE svg PUBLIC "-//W3C//DTD SVG 20010904//EN"
 "http://www.w3.org/TR/2001/REC-SVG-20010904/DTD/svg10.dtd">
<svg version="1.0" xmlns="http://www.w3.org/2000/svg"
 width="290.000000pt" height="174.000000pt" viewBox="0 0 290.000000 174.000000"
 preserveAspectRatio="xMidYMid meet">
<metadata>
Created by potrace 1.16, written by Peter Selinger 2001-2019
</metadata>
<g transform="translate(0.000000,174.000000) scale(0.100000,-0.100000)"
fill="#000000" stroke="none">
<path d="M1205 1730 c-221 -16 -477 -71 -649 -140 -153 -60 -318 -155 -416
-239 l-35 -30 100 35 c123 44 302 87 455 111 165 26 646 26 810 0 226 -35 444
-97 607 -172 87 -40 216 -122 211 -135 -2 -5 -96 -86 -209 -179 l-207 -170
-38 -96 c-30 -75 -35 -98 -25 -108 8 -8 69 -13 205 -15 l194 -3 -34 -86 c-38
-92 -36 -109 14 -115 23 -3 10 -12 -74 -55 -376 -192 -956 -266 -1474 -188
-52 8 -96 13 -98 11 -6 -7 222 -76 313 -96 264 -56 609 -70 870 -36 223 30
485 106 650 188 171 86 345 230 426 354 124 192 124 416 0 608 -38 57 -40 65
-30 94 17 51 7 62 -54 62 -42 0 -58 5 -73 21 -32 36 -206 146 -295 188 -317
148 -748 220 -1144 191z m1525 -481 c-11 -28 -56 -138 -100 -246 -44 -108 -80
-200 -80 -204 0 -5 25 -9 56 -9 41 0 55 -3 51 -12 -3 -7 -17 -43 -32 -80 l-27
-67 -61 -3 -61 -3 -41 -100 -42 -100 -106 -3 c-61 -1 -107 1 -107 7 0 5 18 51
39 102 l39 94 -210 3 c-194 2 -210 4 -204 20 51 137 48 133 136 207 47 40 186
156 310 258 l225 186 117 0 118 1 -20 -51z"/>
<path d="M2255 934 c-77 -64 -141 -122 -143 -130 -3 -11 17 -14 106 -14 l108
0 47 118 c50 125 54 142 35 142 -7 0 -76 -52 -153 -116z"/>
<path d="M534 1335 c-38 -7 -96 -20 -127 -29 -63 -18 -61 -15 -117 -167 -42
-112 -24 -124 105 -69 57 23 101 34 152 38 82 5 103 -4 103 -48 0 -83 -155
-214 -490 -413 l-95 -57 -33 -86 c-25 -67 -30 -89 -21 -100 17 -21 711 -21
732 0 20 21 79 171 75 193 -3 16 -20 19 -145 27 l-141 8 107 71 c137 92 258
211 296 292 58 124 42 254 -38 304 -79 48 -219 63 -363 36z m287 -37 c90 -30
124 -81 116 -171 -14 -155 -145 -296 -444 -480 -46 -27 -83 -51 -83 -53 0 -1
84 -3 187 -4 103 0 188 -2 190 -4 6 -6 -59 -151 -71 -158 -17 -12 -676 -10
-676 2 0 5 12 39 26 74 l25 64 137 82 c324 195 461 323 462 428 0 7 -11 24
-25 37 -21 22 -33 25 -92 25 -77 0 -123 -11 -206 -47 -31 -14 -60 -23 -63 -20
-3 3 12 47 33 98 l38 94 70 18 c150 37 294 43 376 15z"/>
<path d="M1259 1283 c-69 -159 -189 -465 -189 -482 0 -29 26 -33 114 -16 98
19 187 19 231 1 31 -13 35 -19 35 -52 0 -77 -112 -135 -234 -120 -27 3 -84 22
-126 42 -61 28 -82 34 -97 26 -12 -7 -36 -54 -63 -123 -50 -128 -51 -127 45
-154 210 -60 465 -30 613 71 146 101 218 308 149 427 -37 62 -122 105 -225
114 -40 3 -72 8 -72 10 0 2 7 19 14 38 l15 35 204 0 204 0 12 28 c49 106 71
175 60 188 -9 11 -72 14 -341 14 l-329 0 -20 -47z m661 10 c0 -5 -14 -43 -32
-85 l-32 -78 -205 0 -206 0 -24 -58 c-13 -31 -25 -62 -28 -68 -2 -7 27 -13 89
-17 110 -7 188 -41 226 -97 21 -30 23 -45 20 -105 -8 -175 -141 -313 -345
-361 -90 -21 -312 -14 -396 11 -55 17 -58 20 -52 44 14 56 68 171 80 171 6 0
39 -14 71 -30 148 -77 346 -39 389 74 23 61 9 98 -46 120 -46 19 -159 21 -243
5 -31 -5 -63 -9 -71 -7 -14 3 10 66 142 381 l45 107 309 0 c170 0 309 -3 309
-7z"/>
</g>
</svg>
