<svg version="1.0" xmlns="http://www.w3.org/2000/svg"
 width="1500.000000pt" height="1500.000000pt" viewBox="0 0 1500.000000 1500.000000"
 preserveAspectRatio="xMidYMid meet">

<g transform="translate(0.000000,1500.000000) scale(0.100000,-0.100000)"
fill="#000000" stroke="none">
<path d="M7280 13769 c-588 -15 -1199 -123 -1755 -311 -217 -73 -351 -125
-570 -221 -91 -39 -405 -197 -488 -244 -566 -322 -966 -629 -1428 -1099 -210
-213 -308 -322 -454 -504 l-116 -145 108 -6 c156 -9 616 -10 629 -1 6 4 59 61
118 127 108 120 148 160 282 284 686 638 1498 1091 2427 1355 180 52 257 69
547 125 425 82 989 113 1382 76 494 -47 814 -108 1261 -242 637 -190 1271
-511 1812 -916 300 -225 531 -435 802 -729 l71 -78 366 0 c213 0 366 4 366 9
0 14 -202 262 -339 416 -89 99 -518 522 -605 595 -732 618 -1497 1033 -2337
1271 -695 196 -1239 258 -2079 238z"/>
<path d="M7160 12844 c-152 -13 -442 -48 -535 -65 -333 -60 -687 -157 -980
-267 -385 -145 -866 -401 -1170 -622 -324 -236 -432 -323 -642 -518 l-137
-127 64 -6 c36 -4 119 -7 185 -8 l120 -1 75 66 c361 320 646 514 1062 725 622
314 1211 483 1948 560 135 14 647 17 840 6 l135 -8 138 97 c88 63 133 100 125
105 -7 4 -78 14 -158 24 -80 9 -176 21 -215 27 -68 9 -766 19 -855 12z"/>
<path d="M8685 12659 c-38 -27 -98 -69 -132 -92 l-62 -43 142 -33 c647 -149
1238 -401 1778 -759 150 -99 405 -293 534 -406 l110 -96 110 1 c60 1 143 4
184 8 l74 6 -149 141 c-177 168 -200 188 -325 287 -166 131 -221 171 -400 289
-391 259 -800 456 -1249 604 -164 55 -496 144 -528 143 -9 0 -48 -22 -87 -50z"/>
<path d="M7250 12214 c-367 -34 -747 -104 -1028 -189 -420 -127 -776 -283
-1110 -487 -179 -109 -401 -263 -417 -288 -4 -7 946 -10 2887 -10 l2893 1 -30
25 c-16 13 -102 73 -190 133 -528 357 -1104 599 -1730 726 -117 24 -218 40
-455 71 -111 15 -713 28 -820 18z"/>
<path d="M1160 10661 c0 -181 2 -210 16 -215 9 -3 920 -6 2026 -6 1554 0 2009
3 2006 12 -3 7 -83 103 -179 215 l-174 202 -1847 1 -1848 0 0 -209z"/>
<path d="M5277 10848 c11 -13 95 -110 187 -215 l167 -193 2094 0 c1152 0 2096
4 2099 8 3 5 -18 36 -47 69 -148 172 -283 328 -295 340 -11 11 -387 13 -2119
13 l-2106 0 20 -22z"/>
<path d="M9937 10802 c126 -149 291 -338 305 -349 12 -10 390 -12 1802 -10
l1788 2 -1 210 0 210 -1976 3 -1976 2 58 -68z"/>
<path d="M1160 10100 l0 -140 1913 1 1912 0 110 130 c61 72 112 134 113 140 2
5 -764 9 -2022 9 l-2026 0 0 -140z"/>
<path d="M5507 10102 l-119 -137 2103 -3 2103 -2 24 22 c31 30 212 244 212
252 0 3 -946 6 -2102 6 l-2103 -1 -118 -137z"/>
<path d="M10150 10129 c-52 -61 -105 -124 -118 -140 l-23 -29 1910 0 1911 0 0
140 0 140 -1792 0 -1793 -1 -95 -110z"/>
<path d="M9165 9529 c-214 -23 -318 -144 -344 -398 -19 -176 12 -324 89 -427
21 -28 80 -89 131 -135 189 -172 247 -231 275 -282 27 -49 29 -59 29 -168 0
-111 -1 -117 -27 -151 -33 -44 -72 -55 -121 -34 -54 22 -70 62 -75 189 l-5
107 -164 0 -165 0 4 -127 c8 -203 52 -307 162 -380 75 -51 161 -73 281 -73
174 0 292 51 367 160 123 175 124 527 3 715 -50 78 -90 119 -215 223 -214 179
-231 203 -238 327 -7 131 37 199 116 179 55 -14 71 -49 73 -166 l2 -98 163 0
c150 0 164 2 164 18 -1 94 -23 260 -41 309 -33 86 -113 163 -199 190 -74 23
-177 32 -265 22z"/>
<path d="M2625 9506 c-33 -12 -74 -29 -91 -38 -64 -34 -132 -132 -172 -247
-13 -39 -16 -124 -19 -585 -4 -561 -1 -628 38 -731 66 -177 196 -255 423 -255
121 0 184 13 267 54 73 37 115 79 154 156 59 117 60 131 60 730 0 585 -2 611
-52 716 -47 100 -118 162 -232 204 -78 28 -295 26 -376 -4z m273 -289 c13 -13
27 -39 32 -58 14 -46 13 -1082 0 -1130 -21 -74 -86 -110 -157 -86 -31 10 -43
22 -63 62 l-25 50 0 535 c1 575 2 590 52 630 39 30 132 28 161 -3z"/>
<path d="M1190 8590 l0 -920 156 0 155 0 -6 308 c-3 169 -10 435 -15 591 -5
157 -7 287 -4 290 10 10 22 -23 34 -88 7 -36 27 -136 46 -221 18 -85 52 -243
74 -350 23 -107 57 -270 77 -362 l36 -168 194 0 193 0 0 920 0 920 -161 0
-162 0 7 -292 c3 -161 11 -408 17 -548 6 -140 9 -266 7 -280 l-4 -25 -11 25
c-6 14 -23 84 -37 155 -30 153 -31 156 -131 575 -43 179 -81 339 -84 355 l-7
30 -187 3 -187 2 0 -920z"/>
<path d="M3500 8595 l0 -915 78 0 c44 0 120 -3 170 -6 l92 -7 0 408 0 408 68
-5 c76 -6 112 -24 132 -66 9 -19 15 -121 21 -342 4 -173 11 -334 14 -357 l6
-43 161 0 161 0 -6 353 c-7 371 -13 420 -57 492 -12 19 -42 49 -67 67 l-45 33
23 15 c49 32 80 64 104 105 71 120 73 440 4 582 -11 23 -40 59 -64 81 -103 96
-182 112 -536 112 l-259 0 0 -915z m499 631 c55 -29 65 -59 69 -196 6 -204
-22 -262 -136 -281 -34 -6 -69 -9 -77 -5 -13 5 -15 42 -15 251 l0 245 65 0
c38 0 78 -6 94 -14z"/>
<path d="M4520 9360 l0 -150 135 0 135 0 0 -770 0 -770 175 0 175 0 0 770 0
770 135 0 135 0 0 150 0 150 -445 0 -445 0 0 -150z"/>
<path d="M5560 8595 l0 -915 78 0 c44 0 120 -3 170 -6 l92 -7 0 417 0 416 125
0 125 0 0 -415 0 -415 175 0 175 0 0 920 0 920 -175 0 -175 0 0 -355 0 -356
-122 3 -123 3 -3 353 -2 352 -170 0 -170 0 0 -915z"/>
<path d="M6730 8590 l0 -921 373 7 c204 4 373 8 375 9 2 2 26 167 35 242 l5
43 -221 2 -222 3 0 260 0 260 188 3 187 2 0 145 0 145 -187 2 -188 3 0 205 0
205 203 3 202 2 0 150 0 150 -375 0 -375 0 0 -920z"/>
<path d="M7885 9498 c-4 -13 -48 -313 -60 -413 -3 -27 -12 -95 -21 -150 -8
-55 -23 -163 -34 -240 -10 -77 -28 -203 -39 -280 -11 -77 -31 -223 -45 -325
-15 -102 -33 -227 -41 -278 -8 -51 -15 -104 -15 -118 l0 -24 169 0 c166 0 169
0 175 23 3 12 13 103 21 202 9 99 20 190 25 203 9 21 15 22 119 22 81 0 112
-4 120 -14 6 -8 18 -74 26 -147 8 -74 20 -169 26 -211 l11 -78 137 0 c75 0
153 3 174 7 l39 6 -7 56 c-4 31 -16 108 -26 171 -11 63 -28 178 -39 255 -11
77 -36 248 -55 380 -20 132 -45 303 -56 380 -11 77 -34 239 -52 360 l-32 220
-258 3 c-201 2 -258 0 -262 -10z m269 -325 c3 -16 10 -75 16 -133 6 -58 19
-188 30 -290 11 -102 22 -218 26 -258 l7 -73 -89 3 -89 3 3 45 c2 25 11 126
22 225 10 99 24 243 30 320 13 162 17 185 29 185 5 0 12 -12 15 -27z"/>
<path d="M9786 9449 c-3 -34 -6 -102 -6 -150 l0 -89 135 0 135 0 0 -770 0
-770 175 0 175 0 0 770 0 770 135 0 135 0 0 150 0 150 -439 0 -438 0 -7 -61z"/>
<path d="M10810 8590 l0 -920 368 6 c202 3 372 7 378 9 6 2 16 50 23 107 6 56
14 120 17 140 l7 38 -219 2 -219 3 -3 263 -2 262 190 0 190 0 0 145 0 145
-190 0 -190 0 0 210 0 210 200 0 200 0 0 150 0 150 -375 0 -375 0 0 -920z"/>
<path d="M11756 9501 c-7 -11 -3 -1808 4 -1814 3 -2 80 -7 173 -11 l167 -6 0
405 0 405 50 0 c27 0 68 -7 90 -16 71 -29 73 -35 81 -414 4 -184 10 -345 14
-357 7 -23 10 -23 168 -23 l160 0 -6 346 c-9 428 -17 470 -106 551 -20 18 -42
33 -49 33 -22 0 -10 15 38 51 99 74 141 240 121 470 -15 174 -67 271 -178 331
-86 47 -175 58 -462 58 -143 0 -262 -4 -265 -9z m506 -277 c51 -26 62 -56 66
-183 7 -193 -20 -266 -109 -291 -46 -13 -102 -13 -116 1 -9 9 -10 77 -7 243 3
127 8 237 10 244 5 17 115 7 156 -14z"/>
<path d="M12880 8590 l0 -920 156 0 156 0 -7 408 c-3 224 -10 487 -16 585 -5
98 -7 182 -4 188 12 18 22 -1 34 -63 7 -35 24 -115 38 -178 60 -273 135 -624
158 -735 43 -203 38 -189 70 -196 17 -4 104 -7 195 -8 l165 -1 -3 920 -2 920
-155 0 -155 0 0 -252 c0 -139 5 -374 12 -523 15 -351 15 -354 3 -357 -5 -2
-16 29 -23 67 -20 106 -104 480 -172 765 -33 140 -63 265 -65 278 -5 22 -6 22
-195 22 l-190 0 0 -920z"/>
<path d="M4043 7159 c-110 -14 -225 -87 -268 -170 -50 -96 -49 -78 -52 -662
-3 -474 -2 -557 12 -610 32 -125 88 -197 189 -244 57 -26 69 -28 196 -28 109
0 145 4 185 19 76 29 132 72 170 129 49 76 66 145 68 289 l2 123 -160 0 -160
0 -5 -121 c-5 -118 -11 -142 -45 -166 -21 -16 -74 -8 -102 16 l-28 24 -3 524
c-1 287 0 533 3 546 15 59 96 83 146 43 22 -18 24 -27 27 -140 l4 -121 159 0
c136 0 161 2 166 16 11 30 -15 258 -37 319 -32 87 -114 165 -201 193 -74 24
-178 32 -266 21z"/>
<path d="M7440 7160 c-121 -12 -237 -86 -286 -182 -52 -103 -54 -123 -54 -668
0 -310 4 -528 10 -563 25 -131 86 -219 188 -269 66 -33 68 -33 207 -33 163 1
221 17 299 87 89 78 126 189 126 381 l0 97 -154 0 c-131 0 -155 -2 -160 -16
-3 -9 -6 -56 -6 -105 0 -129 -26 -179 -94 -179 -38 0 -55 10 -74 44 -15 28
-17 79 -20 476 -4 529 0 603 34 637 35 34 99 29 128 -10 17 -24 21 -46 24
-138 l4 -109 159 0 159 0 0 74 c0 172 -33 293 -100 369 -72 82 -224 124 -390
107z"/>
<path d="M1177 7143 c-4 -3 -7 -384 -7 -845 l0 -838 350 0 349 0 5 33 c3 17
11 70 17 117 5 47 13 95 16 108 l5 22 -206 0 -206 0 0 230 0 230 163 0 c89 0
168 4 175 8 9 7 12 42 10 143 l-3 134 -172 3 -173 2 0 185 0 185 185 0 186 0
-3 143 -3 142 -341 3 c-187 1 -343 -1 -347 -5z"/>
<path d="M2047 7144 c-4 -4 -7 -385 -7 -846 l0 -838 348 0 349 0 11 98 c7 53
13 115 14 137 l3 40 -202 3 -203 2 -2 703 -3 702 -151 3 c-82 1 -153 -1 -157
-4z"/>
<path d="M2877 7143 c-4 -3 -7 -384 -7 -845 l0 -838 349 0 350 0 6 48 c3 26
10 77 15 114 6 37 10 78 10 92 l0 26 -200 0 -200 0 0 230 0 230 168 2 167 3 3
143 3 142 -171 0 -170 0 0 185 0 185 185 0 186 0 -3 143 -3 142 -341 3 c-187
1 -343 -1 -347 -5z"/>
<path d="M4637 7143 c-9 -8 -9 -141 -1 -222 l7 -61 118 0 119 0 0 -700 0 -700
160 0 160 0 2 698 3 697 123 3 123 3 -3 142 -3 142 -401 3 c-220 1 -403 -1
-407 -5z"/>
<path d="M5577 7143 c-4 -3 -7 -384 -7 -845 l0 -838 160 0 160 0 0 365 0 365
61 0 c53 0 64 -3 89 -28 35 -36 37 -55 45 -397 3 -143 9 -270 12 -282 5 -23 8
-23 158 -23 l152 0 -3 163 c-12 520 -10 499 -33 559 -17 43 -36 69 -74 103
-28 25 -46 45 -39 45 22 0 93 73 120 124 27 50 27 54 27 241 0 184 -1 192 -26
245 -45 97 -100 144 -209 180 -67 22 -575 42 -593 23z m448 -267 c54 -23 65
-57 65 -195 0 -186 -29 -231 -149 -231 l-51 0 0 213 c0 118 3 217 7 220 12 12
93 7 128 -7z"/>
<path d="M6600 6305 l0 -845 155 0 155 0 1 803 c1 780 1 864 0 880 -1 4 -71 7
-156 7 l-155 0 0 -845z"/>
<path d="M13315 7131 c-178 -24 -293 -131 -330 -307 -21 -100 -22 -1018 0
-1128 25 -131 70 -203 157 -252 49 -27 60 -29 158 -29 98 0 109 2 159 30 29
16 65 44 78 62 14 18 29 33 34 33 5 0 9 -19 9 -43 0 -24 5 -48 12 -55 8 -8 50
-12 125 -12 l113 0 0 480 0 480 -220 0 -221 0 3 -132 3 -133 53 -3 52 -3 0
-175 c0 -188 -9 -232 -50 -254 -33 -18 -88 -15 -112 6 -48 44 -48 41 -48 568
0 326 4 504 11 523 18 49 48 73 91 73 80 0 108 -43 108 -165 l0 -75 78 0 c42
0 114 -3 160 -7 l82 -6 0 81 c0 101 -23 214 -55 268 -41 70 -115 128 -192 152
-77 24 -183 33 -258 23z"/>
<path d="M10670 7121 c-114 -37 -201 -118 -241 -223 l-24 -63 0 -570 0 -570
30 -70 c38 -90 100 -154 181 -185 50 -20 78 -24 184 -24 145 -1 210 16 288 74
95 72 136 183 137 375 l0 110 -157 3 -158 3 0 -79 c0 -166 -24 -222 -93 -222
-47 0 -77 27 -85 75 -4 22 -5 273 -2 558 5 499 6 519 24 533 32 23 99 18 124
-9 19 -20 22 -35 22 -103 0 -43 3 -96 6 -117 l7 -37 156 2 156 3 -2 105 c-6
234 -59 342 -203 409 -50 23 -68 26 -190 28 -74 1 -146 -1 -160 -6z"/>
<path d="M8375 7112 c-3 -3 -5 -383 -5 -844 l0 -838 160 0 160 0 0 369 0 368
53 -5 c28 -2 63 -9 77 -16 48 -22 52 -46 60 -390 5 -176 9 -322 9 -324 1 -1
70 -1 154 0 l152 3 3 115 c1 63 -1 216 -6 340 -10 262 -21 302 -99 369 l-45
38 35 22 c41 25 90 98 106 156 32 119 21 355 -21 446 -46 97 -127 157 -243
178 -61 11 -541 22 -550 13z m449 -266 c50 -21 61 -59 61 -206 0 -100 -4 -132
-18 -157 -23 -43 -64 -63 -127 -63 l-50 0 0 220 0 220 50 0 c28 0 65 -6 84
-14z"/>
<path d="M11382 7111 c-9 -5 -11 -216 -10 -842 l3 -834 163 -3 162 -2 0 839
c0 775 -1 839 -17 845 -22 9 -287 6 -301 -3z"/>
<path d="M11917 7114 c-4 -4 -7 -385 -7 -846 l0 -838 147 0 146 0 -7 443 c-3
243 -8 489 -11 547 l-5 105 15 -50 c8 -27 19 -75 24 -105 9 -52 55 -267 87
-410 23 -101 53 -240 65 -300 5 -30 17 -84 25 -120 8 -36 17 -75 20 -87 4 -23
6 -23 184 -23 l180 0 2 840 c3 740 1 841 -12 844 -8 2 -75 4 -149 5 l-134 2 7
-463 c3 -255 9 -490 12 -522 5 -39 3 -57 -3 -53 -6 4 -14 32 -18 62 -7 56 -37
194 -119 540 -81 339 -99 410 -107 421 -10 12 -330 20 -342 8z"/>
<path d="M9556 7078 c-9 -51 -33 -222 -66 -468 -17 -124 -35 -252 -40 -285 -5
-33 -21 -141 -35 -240 -14 -99 -32 -227 -41 -285 -37 -252 -51 -355 -47 -362
6 -12 311 -10 318 2 6 9 45 334 45 372 0 16 11 18 105 18 76 0 107 -4 110 -12
4 -13 27 -197 40 -325 l7 -63 167 0 167 0 -17 123 c-9 67 -27 185 -38 262 -65
437 -94 642 -131 905 -30 210 -46 322 -56 368 l-4 22 -240 0 -239 0 -5 -32z
m271 -459 c12 -107 27 -248 32 -314 6 -66 13 -135 17 -152 l7 -33 -81 0 -80 0
5 68 c2 37 8 96 13 131 5 36 17 163 27 283 11 139 21 217 28 215 5 -2 20 -91
32 -198z"/>
<path d="M1170 4855 l0 -135 1528 0 c840 0 1746 3 2014 7 l487 6 -27 33 c-15
18 -63 75 -107 128 l-80 96 -1907 0 -1908 0 0 -135z"/>
<path d="M5489 4886 c49 -57 99 -118 112 -135 l23 -31 1720 1 c947 1 1891 5
2098 8 l377 6 -107 125 -107 125 -2103 3 -2103 2 90 -104z"/>
<path d="M10041 4963 c14 -16 67 -76 118 -135 l93 -108 1790 0 1789 0 -2 135
-1 135 -1906 0 -1906 0 25 -27z"/>
<path d="M1177 4503 c-4 -3 -7 -98 -7 -210 l0 -203 1838 0 1838 0 115 132 c63
73 142 164 176 202 35 39 63 74 63 79 0 9 -4014 10 -4023 0z"/>
<path d="M5593 4470 c-25 -33 -224 -265 -306 -357 l-20 -23 2100 0 2101 0 113
131 c184 213 239 278 239 283 0 3 -944 6 -2098 6 l-2098 0 -31 -40z"/>
<path d="M10095 4334 c-82 -96 -163 -191 -178 -209 l-29 -35 1971 0 1971 0 0
210 0 210 -1792 -1 -1793 0 -150 -175z"/>
<path d="M2598 3703 c-49 -2 -88 -7 -88 -12 0 -14 251 -311 382 -451 447 -480
890 -840 1433 -1165 509 -305 1234 -596 1759 -705 499 -104 722 -134 1126
-151 287 -12 785 -4 980 17 74 8 178 19 230 24 185 20 567 94 795 155 194 51
432 127 600 192 50 19 104 39 120 45 93 35 412 181 550 253 236 123 478 266
602 357 29 21 55 38 58 38 7 0 215 153 325 239 344 271 705 623 994 970 69 83
129 159 135 169 10 19 2 20 -362 24 l-372 5 -158 -164 c-620 -639 -1402 -1136
-2262 -1436 -241 -84 -585 -180 -770 -213 -444 -82 -658 -105 -1025 -111 -427
-8 -725 20 -1210 111 -75 13 -257 58 -400 97 -566 155 -1160 425 -1665 757
-364 239 -760 569 -1000 832 -47 52 -96 103 -107 113 -18 15 -46 17 -302 15
-154 -1 -320 -4 -368 -5z"/>
<path d="M3740 3701 c0 -14 215 -212 365 -338 205 -170 464 -351 716 -499 96
-56 438 -230 533 -271 15 -7 66 -28 112 -48 217 -94 568 -205 822 -260 73 -16
86 -17 107 -4 51 31 226 182 218 189 -4 3 -73 21 -153 39 -813 185 -1568 562
-2224 1110 l-109 91 -194 0 c-110 0 -193 -4 -193 -9z"/>
<path d="M4730 3701 c0 -12 225 -167 380 -260 427 -258 958 -470 1430 -571
410 -88 580 -105 1040 -105 437 0 552 11 925 84 518 103 1007 285 1460 545
120 70 435 277 454 300 12 15 -216 16 -2838 16 -1602 0 -2851 -4 -2851 -9z"/>
<path d="M10959 3675 c-21 -16 -77 -64 -126 -106 -483 -414 -1191 -784 -1863
-973 -336 -94 -631 -147 -1045 -187 -135 -13 -663 -14 -800 -1 l-100 9 -115
-95 c-143 -118 -145 -120 -138 -127 3 -3 39 -10 79 -14 41 -5 137 -17 214 -27
201 -26 877 -27 1075 -1 381 49 486 68 743 132 760 189 1450 534 2092 1049
163 130 405 349 405 365 0 3 -86 6 -192 6 l-192 0 -37 -30z"/>
</g>
</svg>
