<svg id="svg" version="1.1" xmlns="http://www.w3.org/2000/svg" xmlns:xlink="http://www.w3.org/1999/xlink" width="400" height="400" viewBox="0, 0, 400,400"><g id="svgg"><path id="path0" d="M113.594 21.371 C 79.617 27.006,67.593 67.410,82.362 126.316 C 83.977 132.756,83.983 132.812,83.039 132.813 C 82.130 132.813,71.730 136.339,64.844 138.982 C 19.653 156.329,-0.597 175.460,0.092 200.156 C 0.866 227.873,29.520 251.338,79.317 265.035 C 82.755 265.981,83.150 266.160,83.025 266.719 C 82.948 267.063,82.661 268.188,82.388 269.219 C 81.605 272.176,79.491 283.996,78.468 291.138 C 75.424 312.396,75.521 330.885,78.743 343.793 C 85.428 370.571,106.243 382.773,134.142 376.268 C 152.091 372.083,172.816 358.950,193.866 338.424 L 199.276 333.148 200.302 334.517 C 201.343 335.907,207.901 341.714,215.000 347.534 C 256.189 381.297,287.915 388.055,308.182 367.384 C 325.377 349.845,328.577 317.337,317.470 273.012 C 316.614 269.598,315.884 266.663,315.848 266.489 C 315.811 266.315,316.625 265.993,317.656 265.773 C 321.541 264.944,339.464 258.251,348.594 254.220 C 386.913 237.301,404.252 216.117,399.373 192.178 C 394.197 166.776,366.827 146.482,320.324 133.562 C 318.169 132.964,316.242 132.418,316.040 132.350 C 315.766 132.257,315.780 131.877,316.096 130.827 C 317.890 124.864,321.331 102.198,322.174 90.781 C 325.207 49.733,312.446 25.373,285.838 21.422 C 262.632 17.976,235.876 30.879,204.784 60.510 L 199.724 65.332 198.373 63.994 C 190.383 56.079,170.577 40.887,159.688 34.320 C 142.348 23.864,126.094 19.297,113.594 21.371 M126.406 38.155 C 148.436 40.828,175.607 60.988,207.649 98.438 C 217.715 110.202,218.402 111.609,215.706 114.945 C 213.866 117.222,214.177 117.168,201.691 117.349 C 169.020 117.820,141.622 120.255,111.958 125.325 C 101.211 127.162,100.502 126.684,98.616 116.339 C 88.525 60.994,97.873 34.694,126.406 38.155 M286.719 38.764 C 306.017 44.698,312.313 73.990,303.259 115.723 C 299.950 130.973,291.385 159.048,287.017 168.963 C 284.404 174.894,278.941 173.906,274.959 166.782 C 260.818 141.485,242.971 115.290,222.555 89.863 C 212.351 77.156,212.365 77.298,220.586 70.263 C 249.951 45.138,272.507 34.394,286.719 38.764 M235.507 135.882 C 238.541 137.528,238.539 137.525,255.029 166.250 C 273.125 197.776,271.996 195.604,272.016 198.906 C 272.036 202.208,272.883 200.573,254.938 231.875 C 238.265 260.958,238.161 261.115,234.592 262.450 L 232.789 263.125 200.000 263.125 C 162.337 263.125,165.225 263.348,162.035 260.194 C 160.556 258.731,134.018 213.239,129.289 204.059 C 126.359 198.373,125.823 199.684,144.201 167.623 C 161.369 137.673,161.118 138.081,163.255 136.639 C 166.239 134.626,164.389 134.718,200.625 134.784 L 233.594 134.844 235.507 135.882 M132.656 139.214 C 135.881 139.935,137.854 144.248,136.309 147.200 C 135.997 147.794,133.973 151.305,131.810 155.000 C 116.167 181.725,102.918 209.800,90.491 242.556 C 88.025 249.056,86.201 249.612,77.447 246.531 C 21.235 226.749,2.954 205.189,22.099 181.259 C 34.835 165.341,62.607 152.712,104.844 143.635 C 114.479 141.564,130.323 138.730,131.250 138.912 C 131.508 138.963,132.141 139.099,132.656 139.214 M173.320 148.746 C 169.350 150.306,170.079 149.260,156.665 172.656 C 143.219 196.108,143.366 195.820,143.369 198.789 C 143.372 202.056,143.077 201.467,156.370 224.688 C 169.488 247.601,169.563 247.711,173.056 249.122 L 174.844 249.844 200.000 249.844 L 225.156 249.844 226.993 249.103 C 230.451 247.709,230.679 247.373,243.815 224.375 C 256.692 201.828,256.689 201.835,256.656 198.750 C 256.626 195.852,256.710 196.018,243.594 173.133 C 231.279 151.648,230.636 150.675,227.745 149.151 L 226.094 148.281 200.469 148.214 C 175.869 148.149,174.783 148.171,173.320 148.746 M322.569 153.467 C 378.888 173.328,397.100 194.878,377.804 218.825 C 363.016 237.178,328.059 251.264,275.244 260.151 C 267.155 261.512,265.233 261.083,263.678 257.565 C 262.560 255.038,262.867 254.078,267.094 246.875 C 283.907 218.224,296.197 192.308,309.502 157.444 C 311.986 150.935,313.813 150.379,322.569 153.467 M218.363 162.887 C 222.289 164.436,222.163 164.266,231.512 180.544 C 240.802 196.719,240.085 195.245,240.250 198.509 C 240.425 201.964,240.548 201.701,231.002 218.281 C 222.974 232.225,222.447 232.963,219.451 234.438 L 217.357 235.469 200.000 235.469 L 182.643 235.469 180.549 234.438 C 177.523 232.948,177.045 232.268,168.261 216.929 C 156.941 197.162,156.915 200.735,168.527 180.504 C 177.868 164.231,178.610 163.329,183.354 162.503 C 186.426 161.968,216.879 162.302,218.363 162.887 M189.769 176.903 C 186.528 177.930,185.059 179.614,180.506 187.524 C 173.949 198.913,173.950 198.850,180.419 210.156 C 184.850 217.901,185.954 219.290,188.704 220.579 L 190.469 221.406 200.007 221.406 L 209.544 221.406 211.639 220.375 C 214.348 219.041,214.989 218.219,219.681 210.060 C 226.000 199.070,226.001 198.886,219.762 187.969 C 213.154 176.405,212.873 176.240,199.889 176.268 C 192.648 176.283,191.497 176.355,189.769 176.903 M203.825 190.687 C 208.145 192.545,210.336 198.380,208.320 202.656 C 204.288 211.205,191.680 209.016,191.008 199.651 C 190.503 192.621,197.288 187.875,203.825 190.687 M120.892 227.950 C 122.331 228.701,123.242 229.992,127.085 236.719 C 141.388 261.753,157.564 285.339,177.387 310.061 C 187.687 322.906,187.665 322.673,179.256 329.871 C 143.245 360.700,118.035 369.487,104.363 355.975 C 86.653 338.473,89.095 295.884,111.275 235.469 C 114.094 227.791,116.696 225.757,120.892 227.950 M299.369 272.185 C 301.967 273.510,302.357 274.589,304.202 285.548 C 313.532 340.986,302.273 365.955,271.118 358.912 C 248.886 353.886,222.392 332.858,190.914 295.256 C 185.063 288.267,184.523 287.130,185.645 284.161 C 186.799 281.107,188.248 280.626,196.318 280.620 C 226.489 280.599,259.067 277.820,289.219 272.696 C 296.717 271.422,297.771 271.369,299.369 272.185 " stroke="none" fill="#042c4c" fill-rule="evenodd"></path><path id="path1" d="M167.479 135.003 C 162.556 135.836,162.798 135.497,145.125 166.250 C 127.567 196.803,127.996 195.961,128.191 199.512 C 128.363 202.642,126.717 199.519,144.921 231.250 C 160.935 259.163,161.121 259.469,162.940 260.915 C 165.685 263.096,163.373 262.969,200.156 262.969 L 233.281 262.969 235.046 262.141 C 238.199 260.663,238.355 260.424,254.731 231.868 C 273.324 199.446,271.638 202.640,271.805 199.531 C 271.995 195.979,272.512 196.997,255.144 166.719 C 237.045 135.166,237.538 135.849,232.282 134.988 C 230.112 134.633,169.583 134.646,167.479 135.003 M227.380 148.852 C 230.632 150.355,231.034 150.949,243.293 172.344 C 258.220 198.394,257.835 197.532,256.483 201.875 C 256.012 203.388,233.073 243.669,231.448 245.837 C 228.254 250.097,228.568 250.057,199.063 249.941 L 174.219 249.844 172.461 248.981 C 169.360 247.458,168.695 246.459,155.878 224.063 C 142.139 200.054,142.295 200.409,143.591 196.043 C 144.176 194.074,167.812 152.720,169.163 151.302 C 172.531 147.767,171.889 147.836,200.625 147.907 L 225.469 147.969 227.380 148.852 M181.976 162.945 C 178.201 164.140,177.715 164.782,168.605 180.625 C 157.030 200.752,157.023 197.062,168.677 217.460 C 179.908 237.117,176.764 235.365,200.585 235.244 L 217.969 235.156 219.565 234.314 C 222.239 232.903,223.544 231.023,231.536 217.059 C 242.922 197.165,242.935 200.713,231.408 180.625 C 223.149 166.230,222.212 164.893,219.419 163.522 L 217.656 162.656 200.469 162.594 C 186.945 162.545,183.003 162.620,181.976 162.945 M211.563 177.250 C 214.196 178.544,215.258 179.895,219.672 187.564 C 226.235 198.966,226.235 198.937,219.637 210.377 C 213.216 221.512,212.604 221.870,200.000 221.870 C 187.348 221.870,186.787 221.537,180.261 210.156 C 173.778 198.848,173.777 198.954,180.539 187.215 C 186.973 176.046,186.612 176.243,200.469 176.340 L 209.844 176.406 211.563 177.250 M197.093 190.432 C 187.585 193.975,189.900 207.813,200.000 207.813 C 209.220 207.813,212.431 195.509,204.358 191.115 C 202.357 190.026,199.024 189.713,197.093 190.432 " stroke="none" fill="#fbdb4c" fill-rule="evenodd"></path><path id="path2" d="M115.961 38.446 C 95.743 42.690,90.121 68.256,98.781 116.563 C 100.606 126.743,101.034 127.000,112.887 125.043 C 144.390 119.839,167.976 117.718,199.711 117.234 L 213.016 117.031 214.272 116.200 C 218.291 113.539,217.668 110.530,211.600 103.294 C 179.664 65.207,153.785 44.553,131.250 39.164 C 127.625 38.297,118.672 37.877,115.961 38.446 M272.934 38.768 C 260.184 41.447,243.625 51.199,223.906 67.643 C 216.531 73.793,215.509 74.825,215.070 76.571 C 214.331 79.507,214.245 79.362,223.467 90.828 C 242.105 114.002,258.135 137.332,272.225 161.791 C 277.691 171.279,277.637 171.201,279.161 171.893 C 281.637 173.017,284.088 172.528,285.811 170.566 C 288.924 167.019,300.532 129.221,304.026 111.250 C 313.525 62.393,300.873 32.897,272.934 38.768 M123.438 140.192 C 63.397 150.755,28.225 166.868,17.445 188.751 C 7.687 208.561,25.742 227.181,71.060 244.043 C 87.988 250.341,87.221 250.594,92.489 236.975 C 104.456 206.033,116.717 180.481,132.703 153.169 C 137.444 145.069,137.696 143.789,135.109 140.926 C 133.134 138.741,132.069 138.674,123.438 140.192 M313.931 152.027 C 311.602 152.856,311.137 153.651,307.518 162.995 C 295.327 194.468,282.770 220.574,266.689 247.879 C 262.603 254.818,262.360 256.378,264.943 259.091 C 267.304 261.569,269.119 261.432,290.313 257.176 C 341.596 246.878,372.620 231.417,382.582 211.192 C 392.280 191.506,374.498 173.076,329.469 156.144 C 317.861 151.779,316.005 151.288,313.931 152.027 M116.094 227.943 C 113.745 228.991,113.046 230.491,107.991 245.313 C 91.843 292.662,88.550 326.362,98.085 346.708 C 109.482 371.030,135.488 366.212,176.250 332.226 C 183.645 326.060,184.540 325.142,184.928 323.321 C 185.567 320.328,185.740 320.620,176.533 309.172 C 157.940 286.053,141.830 262.607,127.775 238.209 C 125.520 234.296,123.332 230.555,122.911 229.897 C 121.595 227.839,118.387 226.919,116.094 227.943 M289.375 272.816 C 260.259 277.791,234.308 280.147,203.906 280.575 C 187.420 280.807,187.817 280.746,186.265 283.256 C 184.414 286.252,185.081 288.161,190.043 294.077 C 222.259 332.486,248.214 353.310,270.469 358.604 C 302.877 366.313,314.015 339.977,303.250 281.097 C 301.445 271.220,300.838 270.858,289.375 272.816 " stroke="none" fill="#fc4454" fill-rule="evenodd"></path><path id="path3" d="M120.078 38.042 C 120.895 38.107,122.230 38.107,123.047 38.042 C 123.863 37.978,123.195 37.925,121.563 37.925 C 119.930 37.925,119.262 37.978,120.078 38.042 M278.672 38.041 C 279.402 38.107,280.598 38.107,281.328 38.041 C 282.059 37.976,281.461 37.922,280.000 37.922 C 278.539 37.922,277.941 37.976,278.672 38.041 M295.612 44.141 C 296.378 44.957,297.046 45.625,297.096 45.625 C 297.331 45.625,297.083 45.344,295.703 44.049 L 294.219 42.656 295.612 44.141 M178.750 68.223 C 178.750 68.277,179.207 68.734,179.766 69.238 L 180.781 70.156 179.863 69.141 C 179.008 68.194,178.750 67.981,178.750 68.223 M94.788 75.000 C 94.788 76.117,94.844 76.574,94.914 76.016 C 94.983 75.457,94.983 74.543,94.914 73.984 C 94.844 73.426,94.788 73.883,94.788 75.000 M187.188 76.406 C 188.814 78.039,190.214 79.375,190.300 79.375 C 190.386 79.375,189.126 78.039,187.500 76.406 C 185.874 74.773,184.473 73.438,184.387 73.438 C 184.301 73.438,185.561 74.773,187.188 76.406 M307.303 81.563 C 307.303 83.367,307.355 84.105,307.418 83.203 C 307.481 82.301,307.481 80.824,307.418 79.922 C 307.355 79.020,307.303 79.758,307.303 81.563 M94.790 82.969 C 94.791 84.172,94.848 84.626,94.916 83.977 C 94.983 83.329,94.982 82.345,94.913 81.790 C 94.844 81.235,94.789 81.766,94.790 82.969 M195.000 84.531 C 195.583 85.133,196.130 85.625,196.216 85.625 C 196.302 85.625,195.896 85.133,195.313 84.531 C 194.729 83.930,194.182 83.438,194.096 83.438 C 194.010 83.438,194.417 83.930,195.000 84.531 M95.073 89.375 C 95.073 89.977,95.137 90.223,95.215 89.922 C 95.294 89.621,95.294 89.129,95.215 88.828 C 95.137 88.527,95.073 88.773,95.073 89.375 M193.984 117.419 C 195.059 117.480,196.816 117.480,197.891 117.419 C 198.965 117.358,198.086 117.308,195.938 117.308 C 193.789 117.308,192.910 117.358,193.984 117.419 M183.203 117.724 C 183.676 117.795,184.449 117.795,184.922 117.724 C 185.395 117.652,185.008 117.594,184.063 117.594 C 183.117 117.594,182.730 117.652,183.203 117.724 M176.488 118.034 C 176.877 118.108,177.439 118.105,177.738 118.027 C 178.037 117.949,177.719 117.888,177.031 117.891 C 176.344 117.895,176.099 117.959,176.488 118.034 M170.863 118.346 C 171.252 118.421,171.814 118.418,172.113 118.340 C 172.412 118.261,172.094 118.200,171.406 118.204 C 170.719 118.207,170.474 118.271,170.863 118.346 M161.953 118.965 C 162.254 119.044,162.746 119.044,163.047 118.965 C 163.348 118.887,163.102 118.823,162.500 118.823 C 161.898 118.823,161.652 118.887,161.953 118.965 M27.324 175.703 L 26.406 176.719 27.422 175.801 C 28.369 174.945,28.581 174.688,28.340 174.688 C 28.286 174.688,27.829 175.145,27.324 175.703 M24.358 178.672 L 23.281 179.844 24.453 178.767 C 25.098 178.175,25.625 177.647,25.625 177.595 C 25.625 177.356,25.361 177.581,24.358 178.672 M375.781 181.875 C 376.802 182.906,377.707 183.750,377.793 183.750 C 377.879 183.750,377.114 182.906,376.094 181.875 C 375.073 180.844,374.168 180.000,374.082 180.000 C 373.996 180.000,374.761 180.844,375.781 181.875 M14.760 197.500 C 14.760 198.102,14.824 198.348,14.903 198.047 C 14.982 197.746,14.982 197.254,14.903 196.953 C 14.824 196.652,14.760 196.898,14.760 197.500 M385.073 199.375 C 385.073 199.977,385.137 200.223,385.215 199.922 C 385.294 199.621,385.294 199.129,385.215 198.828 C 385.137 198.527,385.073 198.773,385.073 199.375 M23.906 218.125 C 24.927 219.156,25.832 220.000,25.918 220.000 C 26.004 220.000,25.239 219.156,24.219 218.125 C 23.198 217.094,22.293 216.250,22.207 216.250 C 22.121 216.250,22.886 217.094,23.906 218.125 M375.142 221.641 L 373.906 222.969 375.234 221.733 C 376.470 220.585,376.706 220.313,376.470 220.313 C 376.419 220.313,375.821 220.910,375.142 221.641 M372.324 224.453 L 371.406 225.469 372.422 224.551 C 373.369 223.695,373.581 223.438,373.340 223.438 C 373.286 223.438,372.829 223.895,372.324 224.453 M231.328 279.590 C 231.629 279.669,232.121 279.669,232.422 279.590 C 232.723 279.512,232.477 279.448,231.875 279.448 C 231.273 279.448,231.027 279.512,231.328 279.590 M225.859 279.908 C 226.246 279.983,226.879 279.983,227.266 279.908 C 227.652 279.834,227.336 279.773,226.563 279.773 C 225.789 279.773,225.473 279.834,225.859 279.908 M219.141 280.224 C 219.613 280.295,220.387 280.295,220.859 280.224 C 221.332 280.152,220.945 280.094,220.000 280.094 C 219.055 280.094,218.668 280.152,219.141 280.224 M208.984 280.541 C 209.715 280.607,210.910 280.607,211.641 280.541 C 212.371 280.476,211.773 280.422,210.313 280.422 C 208.852 280.422,208.254 280.476,208.984 280.541 M306.954 309.844 C 306.957 310.531,307.021 310.776,307.096 310.387 C 307.171 309.998,307.168 309.436,307.090 309.137 C 307.011 308.838,306.950 309.156,306.954 309.844 M204.688 311.094 C 205.271 311.695,205.818 312.188,205.904 312.188 C 205.990 312.188,205.583 311.695,205.000 311.094 C 204.417 310.492,203.870 310.000,203.784 310.000 C 203.698 310.000,204.104 310.492,204.688 311.094 M209.531 316.250 C 210.378 317.109,211.141 317.813,211.227 317.813 C 211.312 317.813,210.690 317.109,209.844 316.250 C 208.997 315.391,208.234 314.688,208.148 314.688 C 208.063 314.688,208.685 315.391,209.531 316.250 M92.618 318.438 C 92.618 320.414,92.669 321.223,92.731 320.234 C 92.793 319.246,92.793 317.629,92.731 316.641 C 92.669 315.652,92.618 316.461,92.618 318.438 M307.307 318.906 C 307.307 320.969,307.358 321.772,307.419 320.691 C 307.480 319.610,307.480 317.922,307.418 316.941 C 307.356 315.959,307.306 316.844,307.307 318.906 M219.531 326.250 C 220.378 327.109,221.141 327.813,221.227 327.813 C 221.312 327.813,220.690 327.109,219.844 326.250 C 218.997 325.391,218.234 324.688,218.148 324.688 C 218.063 324.688,218.685 325.391,219.531 326.250 M92.885 326.250 C 92.885 326.852,92.949 327.098,93.028 326.797 C 93.107 326.496,93.107 326.004,93.028 325.703 C 92.949 325.402,92.885 325.648,92.885 326.250 M306.948 327.188 C 306.948 327.789,307.012 328.035,307.090 327.734 C 307.169 327.434,307.169 326.941,307.090 326.641 C 307.012 326.340,306.948 326.586,306.948 327.188 M104.049 355.703 C 104.816 356.520,105.484 357.188,105.534 357.188 C 105.768 357.188,105.520 356.907,104.141 355.612 L 102.656 354.219 104.049 355.703 M118.672 362.104 C 119.402 362.170,120.598 362.170,121.328 362.104 C 122.059 362.038,121.461 361.984,120.000 361.984 C 118.539 361.984,117.941 362.038,118.672 362.104 " stroke="none" fill="#954551" fill-rule="evenodd"></path><path id="path4" d="M200.234 117.408 C 200.621 117.483,201.254 117.483,201.641 117.408 C 202.027 117.334,201.711 117.273,200.938 117.273 C 200.164 117.273,199.848 117.334,200.234 117.408 M161.699 137.891 L 160.781 138.906 161.797 137.988 C 162.355 137.484,162.813 137.027,162.813 136.973 C 162.813 136.731,162.555 136.944,161.699 137.891 M238.125 137.969 C 238.708 138.570,239.255 139.063,239.341 139.063 C 239.427 139.063,239.021 138.570,238.438 137.969 C 237.854 137.367,237.307 136.875,237.221 136.875 C 237.135 136.875,237.542 137.367,238.125 137.969 M187.734 148.047 C 194.480 148.094,205.520 148.094,212.266 148.047 C 219.012 148.000,213.492 147.961,200.000 147.961 C 186.508 147.961,180.988 148.000,187.734 148.047 M192.266 162.422 C 196.520 162.471,203.480 162.471,207.734 162.422 C 211.988 162.373,208.508 162.332,200.000 162.332 C 191.492 162.332,188.012 162.373,192.266 162.422 M185.454 179.453 L 184.219 180.781 185.547 179.546 C 186.277 178.867,186.875 178.269,186.875 178.218 C 186.875 177.981,186.603 178.218,185.454 179.453 M214.219 179.375 C 214.890 180.063,215.510 180.625,215.596 180.625 C 215.682 180.625,215.203 180.063,214.531 179.375 C 213.860 178.688,213.240 178.125,213.154 178.125 C 213.068 178.125,213.547 178.688,214.219 179.375 M199.453 189.903 C 199.754 189.982,200.246 189.982,200.547 189.903 C 200.848 189.824,200.602 189.760,200.000 189.760 C 199.398 189.760,199.152 189.824,199.453 189.903 M127.906 199.063 C 127.906 200.008,127.965 200.395,128.036 199.922 C 128.108 199.449,128.108 198.676,128.036 198.203 C 127.965 197.730,127.906 198.117,127.906 199.063 M271.969 199.063 C 271.969 200.008,272.027 200.395,272.099 199.922 C 272.170 199.449,272.170 198.676,272.099 198.203 C 272.027 197.730,271.969 198.117,271.969 199.063 M224.454 198.906 C 224.457 199.594,224.521 199.838,224.596 199.449 C 224.671 199.061,224.668 198.498,224.590 198.199 C 224.511 197.901,224.450 198.219,224.454 198.906 M199.141 208.036 C 199.613 208.108,200.387 208.108,200.859 208.036 C 201.332 207.965,200.945 207.906,200.000 207.906 C 199.055 207.906,198.668 207.965,199.141 208.036 M196.328 221.796 C 198.348 221.850,201.652 221.850,203.672 221.796 C 205.691 221.741,204.039 221.697,200.000 221.697 C 195.961 221.697,194.309 221.741,196.328 221.796 M177.500 232.344 C 178.083 232.945,178.630 233.438,178.716 233.438 C 178.802 233.438,178.396 232.945,177.813 232.344 C 177.229 231.742,176.682 231.250,176.596 231.250 C 176.510 231.250,176.917 231.742,177.500 232.344 M222.171 232.422 L 221.094 233.594 222.266 232.517 C 222.910 231.925,223.438 231.397,223.438 231.345 C 223.438 231.106,223.173 231.331,222.171 232.422 M191.797 235.547 C 196.309 235.595,203.691 235.595,208.203 235.547 C 212.715 235.498,209.023 235.458,200.000 235.458 C 190.977 235.458,187.285 235.498,191.797 235.547 " stroke="none" fill="#747c4c" fill-rule="evenodd"></path></g></svg>